<?xml version="1.0" standalone="no"?>
<!DOCTYPE svg PUBLIC "-//W3C//DTD SVG 20010904//EN"
 "http://www.w3.org/TR/2001/REC-SVG-20010904/DTD/svg10.dtd">
<svg version="1.0" xmlns="http://www.w3.org/2000/svg"
 width="800.000000pt" height="960.000000pt" viewBox="0 0 800.000000 960.000000"
 preserveAspectRatio="xMidYMid meet">

<g transform="translate(0.000000,960.000000) scale(0.100000,-0.100000)"
fill="#000000" stroke="none">
<path d="M0 5925 c0 -2537 3 -3706 11 -3773 33 -299 139 -590 310 -847 94
-141 302 -353 437 -444 116 -78 290 -162 407 -196 149 -43 249 -53 590 -59
410 -7 648 -30 955 -92 423 -85 858 -252 1211 -468 42 -25 79 -46 83 -46 4 0
48 25 99 56 217 131 551 281 782 352 453 139 791 187 1425 202 260 6 364 12
420 25 347 77 668 288 895 587 172 227 279 459 347 754 l23 99 2 3758 c2 2066
1 3757 -1 3757 -2 0 -73 -34 -158 -75 -456 -224 -952 -359 -1483 -405 -172
-14 -575 -12 -745 5 -537 52 -998 179 -1466 404 l-141 68 -108 -53 c-342 -168
-739 -299 -1115 -368 -284 -52 -399 -61 -780 -61 -396 1 -520 12 -855 80 -373
75 -791 223 -1087 385 l-58 32 0 -3677z m3165 3050 c57 -10 111 -41 172 -98
250 -236 121 -746 -197 -774 -167 -15 -309 111 -370 330 l-18 62 -12 -30 c-18
-47 -24 -162 -11 -244 6 -40 9 -76 7 -79 -3 -2 -20 1 -38 7 -87 31 -119 112
-100 253 7 45 10 84 7 87 -14 13 -128 -23 -210 -66 -312 -164 -327 -168 -600
-167 -129 1 -207 6 -243 15 l-53 14 60 83 c34 45 65 82 70 82 5 0 56 -11 113
-25 57 -14 120 -25 140 -25 36 0 37 0 43 48 28 233 79 325 221 393 84 40 94
39 96 -13 6 -147 -19 -263 -72 -336 -17 -23 -26 -42 -20 -42 6 0 59 24 118 54
119 59 225 100 290 111 40 6 43 9 38 33 -17 85 -17 123 -2 175 19 67 70 117
118 117 28 0 30 -2 24 -27 -3 -16 -9 -69 -12 -118 -5 -72 -3 -102 11 -150 l18
-60 8 44 c28 153 100 268 199 322 30 16 129 38 150 34 8 -2 33 -6 55 -10z
m1857 -32 c103 -32 191 -149 226 -299 l19 -79 13 45 c16 53 18 148 7 243 -8
66 -8 67 15 67 38 0 86 -36 109 -82 19 -38 21 -53 16 -139 l-5 -97 54 -10 c68
-14 161 -51 288 -114 54 -27 100 -48 102 -46 2 2 -7 20 -21 40 -52 76 -85 234
-71 333 7 45 9 46 34 40 54 -12 134 -60 172 -101 68 -74 96 -147 108 -282 l7
-77 56 1 c31 1 98 11 149 24 l93 23 24 -29 c45 -57 96 -135 90 -140 -14 -14
-176 -33 -288 -34 -135 0 -259 17 -350 49 -31 10 -109 49 -173 86 -115 66
-213 105 -263 105 -24 0 -25 -1 -18 -51 24 -176 -11 -271 -108 -293 l-29 -7 9
68 c11 96 9 201 -7 248 l-13 40 -22 -70 c-62 -200 -172 -311 -321 -323 -149
-12 -284 91 -345 263 -27 76 -36 205 -19 287 31 164 164 304 309 328 53 8 86
4 153 -17z m-4229 -128 c9 -19 20 -54 23 -76 l7 -41 51 6 c64 7 120 -11 124
-40 3 -18 -4 -22 -39 -28 -60 -10 -114 -43 -144 -88 -25 -37 -28 -39 -72 -36
-42 3 -47 6 -56 33 -5 17 -19 41 -31 54 -25 28 -91 60 -123 61 -27 0 -29 12
-7 34 28 28 84 33 150 11 18 -6 22 -2 28 26 7 36 52 119 65 119 4 0 15 -16 24
-35z m6476 -37 c17 -33 31 -68 31 -76 0 -10 6 -12 18 -7 34 14 107 16 132 3
31 -17 39 -48 13 -48 -10 0 -42 -11 -70 -25 -51 -23 -67 -43 -87 -107 -8 -27
-102 -26 -111 1 -15 48 -115 111 -177 111 -23 0 -24 33 -2 51 16 13 109 18
143 8 10 -3 17 8 22 37 10 53 35 114 48 114 5 0 23 -28 40 -62z m-3583 -23
c16 -40 18 -83 5 -118 -9 -23 -7 -25 31 -31 45 -7 118 -42 118 -56 0 -12 -52
-39 -105 -56 -26 -8 -38 -17 -36 -25 9 -27 13 -110 7 -134 -5 -18 -13 -25 -31
-25 -14 0 -25 6 -25 13 0 57 -63 147 -114 163 -29 9 -36 22 -36 69 0 38 3 42
43 60 50 24 87 81 87 138 0 31 4 37 21 37 13 0 25 -11 35 -35z m703 -39 c15
-65 40 -101 90 -124 31 -14 36 -23 39 -54 3 -40 -11 -60 -66 -90 -38 -20 -70
-70 -78 -120 -7 -42 -24 -53 -50 -33 -20 14 -25 72 -11 136 7 35 6 37 -25 43
-40 8 -118 45 -118 56 0 12 82 50 122 56 l33 6 0 72 c0 72 13 106 40 106 6 0
17 -24 24 -54z m-3582 -252 c147 -30 253 -104 314 -216 30 -56 33 -71 33 -138
-1 -92 -19 -135 -85 -205 -57 -60 -150 -108 -254 -130 -37 -7 -69 -16 -72 -18
-2 -3 17 -13 44 -23 37 -15 75 -19 171 -19 l123 0 -6 -25 c-10 -39 -32 -68
-68 -87 -50 -28 -183 -21 -274 14 -14 6 -15 -2 -11 -53 7 -72 25 -125 89 -263
74 -162 83 -208 84 -401 0 -140 -4 -181 -24 -268 -35 -149 -33 -147 -123 -68
l-76 66 34 95 c19 53 37 120 40 150 l7 55 -30 0 c-43 0 -175 35 -223 60 -91
46 -166 149 -185 253 l-7 37 48 0 c129 0 262 -43 337 -110 l38 -33 -32 84
c-69 185 -89 248 -100 320 l-12 74 -91 0 c-81 0 -96 3 -137 27 -47 28 -79 75
-79 117 0 25 12 26 95 6 63 -16 206 -19 240 -6 15 6 2 14 -60 34 -94 32 -169
79 -214 135 -49 62 -64 108 -65 192 -1 95 30 165 107 237 116 110 249 143 424
107z m6592 -4 c125 -24 239 -108 293 -217 27 -55 32 -77 32 -133 -2 -159 -111
-277 -310 -336 -52 -15 -56 -18 -34 -25 48 -14 184 -9 257 9 81 21 89 17 73
-39 -23 -79 -115 -124 -238 -117 l-67 3 -6 -60 c-8 -79 -21 -125 -80 -277 -27
-70 -49 -130 -49 -134 0 -3 18 10 41 31 69 62 199 104 322 105 l59 0 -7 -32
c-10 -49 -51 -135 -84 -176 -16 -21 -53 -52 -83 -69 -54 -33 -187 -73 -241
-73 l-30 0 6 -59 c4 -32 20 -96 37 -142 16 -46 30 -88 30 -95 0 -10 -129 -125
-149 -132 -11 -4 -38 90 -57 198 -20 116 -15 353 10 443 9 32 41 112 72 179
30 66 62 153 71 193 16 71 13 112 -7 100 -25 -16 -169 -35 -214 -29 -58 7
-113 52 -122 99 l-5 30 128 0 c107 1 136 4 173 21 l45 21 -80 17 c-334 74
-452 351 -241 562 113 113 291 165 455 134z m-2954 -645 c170 -56 349 -94 505
-105 69 -5 307 -17 530 -25 538 -21 731 -6 952 75 45 17 85 30 90 30 12 0 10
-4599 -2 -4740 -16 -190 -67 -354 -163 -516 -39 -66 -81 -118 -167 -204 -132
-133 -223 -190 -380 -241 -88 -29 -111 -32 -305 -40 -482 -20 -786 -72 -1091
-184 -98 -36 -305 -133 -375 -175 l-36 -22 -89 51 c-290 164 -672 274 -1089
311 -66 6 -212 15 -325 20 -236 10 -282 20 -425 90 -312 152 -538 484 -584
855 -8 63 -11 790 -11 2446 l0 2357 61 -25 c159 -64 349 -95 589 -97 186 -1
741 19 930 34 250 20 510 91 795 218 l149 67 156 -69 c85 -38 213 -88 285
-111z m2832 -2066 c15 -42 21 -49 38 -44 45 14 101 15 125 3 42 -22 36 -42
-16 -56 -54 -15 -124 -77 -124 -111 0 -44 -100 -50 -122 -7 -22 43 -63 77
-111 91 -27 8 -54 13 -60 12 -7 -1 -12 9 -12 23 0 34 60 55 123 41 47 -10 46
-10 56 46 3 18 12 49 21 70 l16 38 24 -28 c13 -15 32 -50 42 -78z m-6483 51
c9 -22 19 -58 22 -80 6 -36 9 -40 28 -34 32 11 110 8 135 -5 15 -8 21 -20 19
-34 -2 -17 -11 -22 -41 -25 -22 -1 -51 -9 -66 -17 -29 -14 -91 -79 -91 -94 0
-13 -61 -20 -87 -10 -12 4 -24 20 -28 38 -11 51 -98 111 -162 111 -17 0 -16
15 2 34 23 22 81 30 125 17 49 -15 47 -16 54 21 7 36 53 118 65 118 5 0 16
-18 25 -40z m6587 -330 c30 -5 86 -26 126 -45 206 -101 269 -330 138 -501 -36
-47 -129 -104 -219 -134 -81 -27 -81 -27 -46 -35 55 -13 158 -8 238 10 50 12
77 14 84 7 17 -17 -10 -78 -47 -111 -45 -39 -101 -53 -189 -49 l-71 3 -6 -60
c-8 -79 -21 -125 -80 -277 -27 -70 -49 -131 -49 -135 0 -4 15 7 33 24 46 44
121 79 210 97 84 18 163 21 171 7 9 -15 -22 -103 -56 -161 -56 -93 -152 -148
-303 -174 l-70 -12 -3 -37 c-2 -22 11 -77 32 -142 20 -59 36 -110 36 -115 0
-9 -140 -130 -150 -130 -10 0 -38 99 -55 194 -19 109 -19 295 0 399 8 47 32
118 60 180 70 153 92 216 100 280 8 66 15 64 -99 40 -106 -21 -166 -13 -212
30 -19 18 -37 46 -40 62 l-5 30 123 0 c97 0 133 4 173 19 l50 19 -93 23 c-206
51 -319 158 -329 313 -4 51 0 79 17 123 67 178 314 298 531 258z m-6518 -30
c252 -78 367 -318 242 -506 -56 -86 -185 -156 -330 -179 -36 -6 -38 -8 -21
-20 28 -21 143 -37 239 -33 72 2 87 0 87 -12 0 -23 -36 -77 -64 -95 -37 -25
-121 -29 -199 -11 -94 22 -97 22 -97 -17 0 -54 27 -141 76 -244 65 -138 81
-188 95 -299 13 -102 8 -274 -11 -360 -22 -103 -43 -174 -53 -174 -5 0 -42 29
-82 65 l-73 65 34 97 c19 53 36 119 37 146 l2 50 -80 14 c-95 16 -187 57 -244
108 -46 42 -99 142 -103 195 l-3 35 78 -2 c121 -3 229 -40 302 -104 l35 -31
-31 83 c-67 178 -89 248 -100 320 l-12 74 -91 0 c-74 0 -99 4 -132 22 -47 25
-73 60 -81 109 -7 41 0 42 91 18 68 -18 198 -22 235 -7 22 9 17 12 -48 33
-187 60 -285 173 -285 330 0 95 26 152 104 231 120 120 296 157 483 99z m-228
-2643 c17 -11 42 -31 56 -44 22 -20 27 -22 32 -9 10 26 88 76 119 76 43 0 45
-24 4 -64 -38 -39 -61 -102 -53 -151 6 -41 1 -51 -38 -75 l-33 -21 -39 27
c-32 22 -45 25 -89 21 -29 -3 -66 -12 -82 -21 -37 -19 -49 -7 -32 33 14 34 59
69 100 77 l29 6 -14 36 c-9 19 -18 59 -21 89 -6 49 -5 53 12 47 10 -4 33 -16
49 -27z m6779 -25 c-3 -26 -13 -62 -20 -81 -8 -18 -14 -35 -14 -36 0 -1 14 -5
31 -9 30 -6 109 -73 109 -92 -1 -28 -17 -34 -50 -17 -19 9 -54 18 -79 21 -37
3 -53 -1 -84 -22 -35 -24 -40 -25 -66 -12 -42 22 -49 36 -48 96 0 62 -11 90
-56 137 -35 37 -31 63 10 63 30 0 99 -43 115 -73 9 -18 11 -18 41 11 40 38 98
73 109 66 5 -3 6 -27 2 -52z m-6203 -214 c117 -54 174 -142 174 -273 0 -70 -4
-89 -33 -149 -18 -38 -57 -100 -88 -138 -30 -37 -51 -68 -46 -68 44 0 170 71
241 135 22 20 45 34 50 30 14 -8 24 -70 17 -100 -12 -47 -76 -104 -162 -146
l-84 -40 22 -30 c34 -46 95 -89 232 -164 182 -99 284 -198 397 -387 47 -78
115 -236 105 -245 -2 -3 -49 -2 -104 2 l-100 7 -12 46 c-15 61 -67 192 -84
215 -14 18 -18 17 -88 -17 -181 -89 -313 -85 -445 13 -24 17 -43 36 -43 41 0
18 144 105 206 125 35 12 88 19 131 20 40 0 73 1 73 2 0 1 -57 37 -126 80 -70
43 -160 109 -200 147 l-74 68 -46 -42 c-81 -74 -168 -98 -238 -65 -27 13 -63
53 -54 59 2 2 32 15 68 30 79 33 164 91 197 133 l24 31 -73 -26 c-59 -21 -92
-26 -168 -26 -84 -1 -101 2 -152 27 -70 34 -131 102 -154 169 -27 82 -16 208
24 291 58 117 173 210 322 259 82 27 216 21 291 -14z m5844 17 c116 -31 240
-116 305 -210 108 -157 88 -376 -45 -477 -97 -74 -224 -87 -372 -36 -40 13
-73 21 -73 17 0 -4 23 -28 52 -54 46 -42 197 -125 226 -125 28 0 -7 -44 -55
-69 -56 -29 -157 2 -238 72 l-40 35 -69 -64 c-38 -36 -121 -97 -185 -136 -149
-91 -156 -97 -99 -91 24 3 70 0 102 -7 65 -13 196 -77 241 -116 l29 -27 -29
-24 c-48 -40 -150 -84 -208 -90 -70 -7 -141 10 -246 58 -46 22 -86 39 -88 39
-10 0 -72 -150 -89 -212 l-18 -66 -98 -7 c-55 -4 -102 -5 -105 -2 -16 17 92
241 165 340 107 146 201 225 381 317 81 42 202 140 200 164 0 6 -41 30 -90 54
-117 57 -153 100 -147 179 3 29 8 56 11 59 4 4 23 -6 43 -22 106 -85 177 -127
234 -139 l35 -8 -38 43 c-162 179 -191 362 -81 507 72 94 240 136 389 98z
m-3348 -1050 c140 -42 226 -173 242 -370 l7 -90 22 35 c32 51 52 123 59 218 7
91 11 95 64 59 65 -44 73 -133 24 -264 -14 -36 -25 -69 -25 -74 0 -5 33 -9 73
-9 71 0 123 11 301 64 185 55 460 23 693 -80 l58 -26 -60 -55 c-103 -93 -87
-90 -202 -32 -55 28 -118 53 -139 56 l-40 5 -18 -58 c-26 -83 -71 -168 -112
-214 -46 -50 -142 -98 -216 -106 l-58 -7 0 39 c0 96 57 231 130 306 25 26 41
48 35 48 -6 0 -69 -14 -141 -31 -80 -19 -167 -32 -229 -34 l-100 -5 -6 -70
c-12 -128 -75 -210 -160 -210 -22 0 -39 2 -39 4 0 2 16 52 35 110 30 88 35
118 33 173 l-3 67 -38 -76 c-46 -94 -108 -165 -178 -203 -42 -22 -70 -30 -131
-33 -72 -4 -83 -2 -143 27 -166 82 -247 277 -200 480 43 180 161 319 304 357
62 17 98 17 158 -1z m-587 -123 c0 -56 30 -121 70 -150 32 -24 38 -51 21 -95
-7 -18 -19 -26 -49 -30 -48 -8 -87 -43 -113 -102 -11 -25 -27 -45 -35 -45 -35
0 -40 89 -9 150 13 25 12 26 -40 54 -59 31 -90 60 -81 75 4 5 28 13 54 16 105
14 102 12 102 60 0 51 14 95 36 112 28 21 44 4 44 -45z"/>
<path d="M2962 8719 c-150 -48 -213 -194 -124 -284 46 -47 107 -68 213 -73
112 -5 176 7 267 51 108 52 151 121 116 186 -59 109 -310 173 -472 120z"/>
<path d="M4790 8705 c-135 -38 -220 -104 -220 -172 0 -31 8 -44 48 -83 70 -67
160 -101 285 -108 133 -7 213 14 273 73 40 38 44 46 44 89 0 49 -24 109 -57
138 -10 9 -45 29 -77 44 -75 34 -210 43 -296 19z"/>
<path d="M673 8441 c-65 -41 -122 -142 -150 -265 -29 -128 11 -280 89 -336 54
-39 108 -47 156 -23 153 79 176 439 37 590 -49 53 -86 62 -132 34z"/>
<path d="M7233 8436 c-64 -29 -122 -154 -130 -283 -12 -186 57 -339 162 -359
51 -9 132 32 167 87 77 118 60 337 -36 476 -55 79 -105 104 -163 79z"/>
<path d="M3991 7758 c-4 -13 -23 -63 -41 -113 -18 -49 -38 -105 -46 -122 l-13
-33 -155 55 c-86 30 -156 52 -156 49 0 -2 45 -72 100 -154 l100 -150 138 1
c75 1 176 4 224 8 l87 6 101 149 c55 82 99 150 98 151 -2 1 -72 -24 -157 -57
-85 -32 -155 -57 -156 -56 -1 2 -26 67 -55 146 -29 78 -54 142 -56 142 -3 0
-8 -10 -13 -22z"/>
<path d="M1685 7400 c43 -457 307 -829 746 -1051 75 -38 107 -59 98 -65 -26
-16 -417 -9 -542 9 -120 18 -266 56 -317 82 l-29 15 18 -53 c130 -377 470
-632 910 -681 l104 -11 -179 -58 c-212 -68 -352 -101 -503 -118 -61 -7 -111
-16 -111 -20 0 -4 34 -39 76 -78 246 -229 592 -341 903 -291 35 6 65 9 67 7 7
-7 -133 -107 -212 -152 -43 -25 -122 -60 -174 -77 -85 -28 -108 -31 -218 -32
l-124 -1 39 -33 c135 -118 392 -187 605 -163 143 16 291 60 376 113 18 11 36
18 39 15 9 -10 -43 -110 -91 -174 -64 -84 -169 -180 -251 -228 l-68 -39 42
-19 c74 -32 192 -57 270 -57 142 0 261 42 410 145 118 81 201 88 201 18 0 -67
-46 -108 -223 -198 -144 -72 -261 -148 -366 -237 -81 -68 -181 -180 -181 -202
0 -8 30 -22 76 -36 l76 -22 -34 -37 c-19 -20 -107 -115 -196 -212 -189 -208
-217 -233 -246 -224 -12 3 -49 9 -83 12 -88 8 -97 24 -30 57 109 53 171 149
148 226 -6 22 -15 40 -19 40 -4 0 -41 -28 -82 -61 -84 -69 -180 -119 -225
-119 l-30 0 33 26 c51 40 122 148 149 227 34 96 30 216 -9 292 -92 177 -317
230 -536 125 -148 -71 -249 -167 -309 -295 -24 -53 -28 -72 -28 -155 0 -87 3
-100 30 -149 38 -68 102 -124 174 -152 44 -18 77 -22 151 -22 90 0 112 4 235
48 11 3 -7 -19 -40 -50 -42 -40 -92 -72 -163 -107 -56 -28 -101 -56 -99 -62 6
-19 91 -66 130 -73 71 -11 154 39 241 146 l27 34 21 -20 20 -20 -27 -41 c-34
-52 -43 -114 -22 -156 8 -17 21 -52 27 -79 14 -53 57 -97 95 -97 12 0 44 -12
71 -27 40 -23 60 -28 111 -27 l62 2 16 -47 c28 -84 46 -204 52 -343 5 -114 9
-138 22 -142 9 -2 60 -7 114 -11 114 -8 107 -23 77 149 -37 216 -105 444 -166
555 l-24 44 20 22 c23 24 25 47 9 77 -17 32 -15 34 409 311 84 55 154 98 156
96 2 -2 11 -37 21 -76 l17 -73 71 66 c73 67 181 138 230 149 15 4 27 5 27 3 0
-3 -20 -40 -45 -83 -56 -99 -101 -223 -120 -332 -15 -88 -20 -246 -9 -325 l6
-44 53 52 c39 39 66 56 105 68 70 21 84 21 75 -1 -49 -117 -59 -169 -59 -308
1 -158 21 -257 88 -415 41 -98 147 -292 160 -294 23 -3 173 310 211 441 54
185 56 358 5 500 -38 104 -38 97 6 89 59 -12 115 -44 160 -93 l42 -45 8 98 c9
125 -8 287 -42 397 -26 83 -89 218 -126 270 -17 24 -18 27 -3 27 43 0 172 -81
263 -165 l59 -54 17 75 c10 40 20 74 23 74 3 0 51 -31 107 -69 56 -37 160
-104 231 -149 72 -44 152 -99 178 -122 46 -41 48 -44 41 -85 -5 -35 -2 -47 13
-62 18 -18 18 -20 -24 -108 -66 -142 -141 -424 -159 -599 l-7 -68 99 7 c54 4
106 11 115 16 13 7 17 35 22 156 6 148 22 250 53 332 16 43 17 43 56 37 46 -8
106 6 139 33 13 10 42 21 64 24 45 7 81 42 90 85 4 15 15 50 26 77 25 67 24
83 -11 150 -25 47 -28 59 -17 76 6 10 14 19 18 19 3 0 31 -29 62 -64 61 -69
139 -116 191 -116 40 1 105 31 134 62 l22 24 -102 52 c-92 46 -208 127 -216
151 -2 5 30 -1 71 -14 186 -59 338 -35 445 73 147 146 114 377 -79 557 -132
123 -305 185 -458 164 -309 -44 -385 -404 -140 -662 l57 -59 -39 5 c-57 8
-114 39 -207 113 -91 73 -100 73 -109 6 -11 -79 49 -159 159 -213 58 -28 49
-49 -20 -49 -24 0 -62 -5 -84 -12 -38 -11 -39 -11 -84 33 -41 39 -340 360
-387 416 -18 21 -18 21 57 43 42 13 76 28 76 34 0 21 -100 135 -173 197 -105
89 -244 178 -394 254 -149 75 -203 122 -203 178 0 42 15 57 57 57 40 0 69 -14
156 -75 79 -55 172 -99 252 -120 117 -30 286 -13 414 42 l45 19 -70 39 c-101
56 -257 216 -309 317 -22 42 -37 79 -35 82 3 2 41 -13 84 -34 206 -101 473
-123 685 -58 83 25 208 89 256 131 l37 32 -119 1 c-136 0 -206 16 -329 73 -80
38 -201 115 -259 166 l-30 26 30 -6 c71 -14 267 -17 346 -5 165 24 349 98 487
196 66 48 192 161 192 174 0 3 -48 12 -107 18 -148 17 -295 51 -507 119 l-179
58 104 11 c350 40 621 197 796 462 55 83 132 246 121 257 -2 2 -42 -9 -88 -25
-162 -55 -430 -86 -649 -75 -74 4 -140 9 -148 12 -8 3 17 19 60 38 170 74 364
209 481 336 159 171 272 394 310 612 15 85 28 197 23 197 -1 0 -29 -25 -61
-56 -164 -155 -551 -356 -996 -518 -85 -31 -182 -69 -215 -85 -177 -84 -313
-308 -341 -559 -5 -46 -14 -72 -31 -93 -66 -78 -199 -112 -279 -71 -51 26 -78
56 -106 117 -23 49 -23 55 -23 415 0 394 -3 420 -57 500 -51 75 -52 75 -326
78 -282 4 -334 -3 -389 -51 -58 -51 -75 -103 -81 -240 l-5 -118 44 8 c72 13
200 7 242 -10 l38 -16 -6 -88 c-3 -48 -10 -163 -14 -254 -8 -150 -11 -173 -35
-225 -33 -73 -50 -92 -101 -115 -117 -54 -293 25 -309 138 -16 107 -36 196
-59 252 -78 193 -208 319 -387 376 -143 45 -484 188 -660 276 -222 111 -352
193 -447 282 l-65 62 7 -75z m2236 -349 c62 -62 22 -161 -64 -161 -80 0 -110
136 -39 174 41 23 71 19 103 -13z m-1832 -3061 c119 -60 269 -264 286 -388 9
-70 -15 -152 -55 -186 -124 -104 -295 -14 -411 216 -78 154 -76 319 5 370 39
24 114 19 175 -12z m3996 16 c58 -25 82 -103 65 -216 -21 -137 -151 -340 -250
-390 -176 -90 -322 64 -252 265 19 55 100 179 154 235 95 102 199 141 283 106z"/>
<path d="M1690 4316 c0 -18 4 -46 9 -62 24 -76 23 -83 -11 -97 -65 -27 -130
-100 -113 -127 2 -4 23 1 44 12 58 29 123 26 173 -7 45 -30 68 -28 112 6 25
20 27 27 22 61 -10 61 10 117 60 167 46 45 45 61 -1 61 -32 0 -101 -36 -119
-61 l-16 -23 -32 31 c-34 31 -57 45 -102 63 -25 9 -26 8 -26 -24z"/>
<path d="M6214 4296 l-59 -44 -22 25 c-39 42 -110 64 -142 44 -12 -8 -8 -15
18 -36 48 -41 71 -94 71 -164 0 -53 3 -62 27 -80 41 -33 69 -36 99 -12 54 43
138 45 200 5 23 -16 24 -16 24 9 0 35 -41 81 -95 107 -25 12 -45 27 -45 33 0
7 7 37 15 67 8 30 15 63 15 73 0 31 -45 19 -106 -27z"/>
<path d="M3312 3059 c-186 -36 -332 -208 -357 -418 l-7 -63 64 4 c155 10 296
142 343 325 16 60 20 164 8 162 -5 -1 -27 -5 -51 -10z"/>
<path d="M4635 3060 c-9 -14 16 -162 36 -211 60 -154 204 -269 336 -269 l46 0
-6 76 c-14 193 -169 368 -355 402 -29 5 -55 6 -57 2z"/>
<path d="M7223 5443 c-39 -18 -85 -85 -110 -157 -25 -72 -25 -250 1 -328 21
-66 71 -129 116 -148 72 -30 162 17 206 106 23 48 29 74 32 150 5 113 -18 199
-76 290 -58 89 -110 116 -169 87z"/>
<path d="M685 5436 c-66 -28 -144 -163 -166 -286 -16 -91 6 -213 48 -275 54
-77 152 -104 219 -60 62 40 114 178 114 297 0 110 -49 246 -107 299 -36 34
-70 41 -108 25z"/>
<path d="M777 2480 c-36 -29 -51 -81 -44 -159 12 -136 74 -256 174 -337 92
-75 192 -83 261 -19 37 33 37 34 37 117 -1 76 -4 89 -39 158 -92 178 -302 308
-389 240z"/>
<path d="M7053 2470 c-119 -56 -224 -180 -264 -312 -34 -110 -10 -185 68 -220
53 -23 108 -21 168 8 50 23 139 112 166 166 79 154 88 316 22 367 -36 29 -87
26 -160 -9z"/>
<path d="M3461 1279 c-64 -11 -137 -42 -168 -71 -31 -29 -39 -78 -19 -115 22
-44 108 -117 177 -152 225 -112 488 -23 455 155 -15 78 -119 149 -263 179 -76
16 -103 17 -182 4z"/>
</g>
</svg>
